<svg xmlns="http://www.w3.org/2000/svg" width="1100" height="760" viewBox="0 0 1100 760" fill="none">
  <defs>
    <linearGradient id="bg" x1="0" y1="0" x2="0" y2="1">
      <stop offset="0%" stop-color="#0B1220"/>
      <stop offset="100%" stop-color="#030712"/>
    </linearGradient>
    <marker id="arrow" markerWidth="10" markerHeight="10" refX="9" refY="5" orient="auto">
      <path d="M0,0 L10,5 L0,10 Z" fill="#9CA3AF"/>
    </marker>
    <style>
      .title { fill: #E5E7EB; font: 600 26px 'Segoe UI', Arial, sans-serif; }
      .subtitle { fill: #94A3B8; font: 400 13px 'Segoe UI', Arial, sans-serif; }
      .label { fill: #E5E7EB; font: 600 13px 'Segoe UI', Arial, sans-serif; }
      .small { fill: #CBD5E1; font: 400 11px 'Segoe UI', Arial, sans-serif; }
      .line { stroke: #9CA3AF; stroke-width: 2; marker-end: url(#arrow); }
      .api { fill: #064E3B; stroke: #10B981; }
      .queue { fill: #1E3A8A; stroke: #60A5FA; }
      .worker { fill: #312E81; stroke: #818CF8; }
      .db { fill: #1F2937; stroke: #94A3B8; }
      .node { rx: 10; }
    </style>
  </defs>

  <rect width="1100" height="760" fill="url(#bg)"/>
  <text x="36" y="44" class="title">WiredApply Worker Pipeline</text>
  <text x="36" y="64" class="subtitle">scheduler/manual -> API trigger -> queues -> workers -> applications/digest + retry loop</text>

  <rect x="460" y="90" width="180" height="44" class="node api"/>
  <text x="550" y="118" text-anchor="middle" class="label">Scheduler / Manual</text>

  <rect x="460" y="160" width="180" height="44" class="node api"/>
  <text x="550" y="188" text-anchor="middle" class="label">POST /pipeline/run</text>

  <rect x="460" y="230" width="180" height="44" class="node queue"/>
  <text x="550" y="258" text-anchor="middle" class="label">Queue: ingestion.jobs</text>

  <rect x="460" y="300" width="180" height="44" class="node worker"/>
  <text x="550" y="328" text-anchor="middle" class="label">Worker: ingestion_worker</text>

  <rect x="460" y="370" width="180" height="44" class="node queue"/>
  <text x="550" y="398" text-anchor="middle" class="label">Queue: jobs.normalized</text>

  <rect x="460" y="440" width="180" height="44" class="node worker"/>
  <text x="550" y="468" text-anchor="middle" class="label">Worker: normalize_dedupe_worker</text>

  <rect x="460" y="510" width="180" height="44" class="node queue"/>
  <text x="550" y="538" text-anchor="middle" class="label">Queue: scoring.jobs</text>

  <rect x="460" y="580" width="180" height="44" class="node worker"/>
  <text x="550" y="608" text-anchor="middle" class="label">Worker: scoring_worker</text>

  <rect x="220" y="580" width="190" height="44" class="node queue"/>
  <text x="315" y="608" text-anchor="middle" class="label">Queue: digest.email</text>

  <rect x="220" y="650" width="190" height="44" class="node worker"/>
  <text x="315" y="678" text-anchor="middle" class="label">Worker: digest_worker</text>

  <rect x="690" y="580" width="190" height="44" class="node queue"/>
  <text x="785" y="608" text-anchor="middle" class="label">Queue: shortlist.apply</text>

  <rect x="690" y="650" width="190" height="44" class="node worker"/>
  <text x="785" y="678" text-anchor="middle" class="label">Worker: apply_worker</text>

  <rect x="690" y="710" width="190" height="34" class="node db"/>
  <text x="785" y="731" text-anchor="middle" class="small">applications (table)</text>

  <rect x="910" y="650" width="160" height="44" class="node queue"/>
  <text x="990" y="678" text-anchor="middle" class="label">Queue: retry.apply</text>

  <rect x="910" y="710" width="160" height="34" class="node worker"/>
  <text x="990" y="731" text-anchor="middle" class="small">retry_worker</text>

  <line x1="550" y1="134" x2="550" y2="160" class="line"/>
  <line x1="550" y1="204" x2="550" y2="230" class="line"/>
  <line x1="550" y1="274" x2="550" y2="300" class="line"/>
  <line x1="550" y1="344" x2="550" y2="370" class="line"/>
  <line x1="550" y1="414" x2="550" y2="440" class="line"/>
  <line x1="550" y1="484" x2="550" y2="510" class="line"/>
  <line x1="550" y1="554" x2="550" y2="580" class="line"/>

  <line x1="460" y1="602" x2="410" y2="602" class="line"/>
  <line x1="315" y1="624" x2="315" y2="650" class="line"/>

  <line x1="640" y1="602" x2="690" y2="602" class="line"/>
  <line x1="785" y1="624" x2="785" y2="650" class="line"/>
  <line x1="785" y1="694" x2="785" y2="710" class="line"/>

  <line x1="880" y1="672" x2="910" y2="672" class="line"/>
  <line x1="990" y1="694" x2="990" y2="710" class="line"/>

  <path d="M910 727 C860 727, 860 602, 690 602" class="line" fill="none"/>
</svg>
